# xmcd
#
# Track frame offsets:
#	150
#	20255
#	31712
#	49310
#	64292
#	86547
#	100265
#	120767
#	135440
#	149825
#	165240
#	188395
#	205230
#	220255
#
# Disc length: 3133 seconds
# Revision: 0
# Processed by: cddbd v1.5.2PL0 Copyright (c) Steve Scherf et al.
# Submitted via: dBpowerAMP V12.0
#
DISCID=b60c3b0e
DTITLE=Clube do Camelo - Poetas Que Cantam
DYEAR=1997
DGENRE=Brazil
TTITLE0=Nen Deu (Almir Morisson)
TTITLE1=Decepção (Almir Morisson e Firmino Sousa Filho)
TTITLE2=De Volta à Dança do Boi (Almir Morisson, Firmino Sousa Filho e Gervásio Cavalcante)
TTITLE3=Tão Triste (Almir Morisson)
TTITLE4=Deixa Um Sorriso (Edyr Poença)
TTITLE5=Boi no Céu (Almir Morisson)
TTITLE6=Sem Ressentimentos (Edyr Proença)
TTITLE7=Poetas Que Cantam (Firmino Sousa Filho)
TTITLE8=Remanso (Almir Morisson)
TTITLE9=Moreninha do Acará (Firmino Sousa Filho)
TTITLE10=Bangalô (Almir Morisson)
TTITLE11=Danthiana (Raimundo Dantas e Gervásio Cavalcante)
TTITLE12=Amoratória (Almir Morisson)
TTITLE13=Pranto Divino (Firmino Sousa Filho)
EXTD=
EXTT0=
EXTT1=
EXTT2=
EXTT3=
EXTT4=
EXTT5=
EXTT6=
EXTT7=
EXTT8=
EXTT9=
EXTT10=
EXTT11=
EXTT12=
EXTT13=
PLAYORDER=
